<?xml version="1.0" encoding="UTF-8" standalone="no"?>
<!DOCTYPE svg PUBLIC "-//W3C//DTD SVG 1.1//EN"
 "http://www.w3.org/Graphics/SVG/1.1/DTD/svg11.dtd">
<!-- Generated by graphviz version 3.0.0 (0)
 -->
<!-- Title: snakemake_dag Pages: 1 -->
<svg width="373pt" height="548pt"
 viewBox="0.00 0.00 372.50 548.00" xmlns="http://www.w3.org/2000/svg" xmlns:xlink="http://www.w3.org/1999/xlink">
<g id="graph0" class="graph" transform="scale(1 1) rotate(0) translate(4 544)">
<title>snakemake_dag</title>
<polygon fill="white" stroke="transparent" points="-4,4 -4,-544 368.5,-544 368.5,4 -4,4"/>
<!-- 0 -->
<g id="node1" class="node">
<title>0</title>
<path fill="none" stroke="#d87556" stroke-width="2" d="M149.5,-36C149.5,-36 119.5,-36 119.5,-36 113.5,-36 107.5,-30 107.5,-24 107.5,-24 107.5,-12 107.5,-12 107.5,-6 113.5,0 119.5,0 119.5,0 149.5,0 149.5,0 155.5,0 161.5,-6 161.5,-12 161.5,-12 161.5,-24 161.5,-24 161.5,-30 155.5,-36 149.5,-36"/>
<text text-anchor="middle" x="134.5" y="-15.5" font-family="sans" font-size="10.00">all</text>
</g>
<!-- 1 -->
<g id="node2" class="node">
<title>1</title>
<path fill="none" stroke="#afd856" stroke-width="2" d="M85,-468C85,-468 12,-468 12,-468 6,-468 0,-462 0,-456 0,-456 0,-444 0,-444 0,-438 6,-432 12,-432 12,-432 85,-432 85,-432 91,-432 97,-438 97,-444 97,-444 97,-456 97,-456 97,-462 91,-468 85,-468"/>
<text text-anchor="middle" x="48.5" y="-447.5" font-family="sans" font-size="10.00">compute_kmer_qv</text>
</g>
<!-- 1&#45;&gt;0 -->
<g id="edge3" class="edge">
<title>1&#45;&gt;0</title>
<path fill="none" stroke="grey" stroke-width="2" d="M48.5,-431.95C48.5,-405.29 48.5,-352.11 48.5,-307 48.5,-307 48.5,-307 48.5,-161 48.5,-114.31 82.94,-69.84 108.23,-43.49"/>
<polygon fill="grey" stroke="grey" stroke-width="2" points="110.87,-45.8 115.41,-36.23 105.89,-40.88 110.87,-45.8"/>
</g>
<!-- 2 -->
<g id="node3" class="node">
<title>2</title>
<path fill="none" stroke="#d8bc56" stroke-width="2" d="M120.5,-540C120.5,-540 90.5,-540 90.5,-540 84.5,-540 78.5,-534 78.5,-528 78.5,-528 78.5,-516 78.5,-516 78.5,-510 84.5,-504 90.5,-504 90.5,-504 120.5,-504 120.5,-504 126.5,-504 132.5,-510 132.5,-516 132.5,-516 132.5,-528 132.5,-528 132.5,-534 126.5,-540 120.5,-540"/>
<text text-anchor="middle" x="105.5" y="-519.5" font-family="sans" font-size="10.00">buildmer</text>
</g>
<!-- 2&#45;&gt;1 -->
<g id="edge6" class="edge">
<title>2&#45;&gt;1</title>
<path fill="none" stroke="grey" stroke-width="2" d="M91.41,-503.7C84.58,-495.3 76.24,-485.07 68.74,-475.86"/>
<polygon fill="grey" stroke="grey" stroke-width="2" points="71.46,-473.65 62.43,-468.1 66.03,-478.07 71.46,-473.65"/>
</g>
<!-- 4 -->
<g id="node5" class="node">
<title>4</title>
<path fill="none" stroke="#567bd8" stroke-width="2" d="M197.5,-468C197.5,-468 127.5,-468 127.5,-468 121.5,-468 115.5,-462 115.5,-456 115.5,-456 115.5,-444 115.5,-444 115.5,-438 121.5,-432 127.5,-432 127.5,-432 197.5,-432 197.5,-432 203.5,-432 209.5,-438 209.5,-444 209.5,-444 209.5,-456 209.5,-456 209.5,-462 203.5,-468 197.5,-468"/>
<text text-anchor="middle" x="162.5" y="-447.5" font-family="sans" font-size="10.00">compute_read_qv</text>
</g>
<!-- 2&#45;&gt;4 -->
<g id="edge8" class="edge">
<title>2&#45;&gt;4</title>
<path fill="none" stroke="grey" stroke-width="2" d="M119.59,-503.7C126.42,-495.3 134.76,-485.07 142.26,-475.86"/>
<polygon fill="grey" stroke="grey" stroke-width="2" points="144.97,-478.07 148.57,-468.1 139.54,-473.65 144.97,-478.07"/>
</g>
<!-- 3 -->
<g id="node4" class="node">
<title>3</title>
<path fill="none" stroke="#88d856" stroke-width="2" d="M160.5,-396C160.5,-396 88.5,-396 88.5,-396 82.5,-396 76.5,-390 76.5,-384 76.5,-384 76.5,-372 76.5,-372 76.5,-366 82.5,-360 88.5,-360 88.5,-360 160.5,-360 160.5,-360 166.5,-360 172.5,-366 172.5,-372 172.5,-372 172.5,-384 172.5,-384 172.5,-390 166.5,-396 160.5,-396"/>
<text text-anchor="middle" x="124.5" y="-375.5" font-family="sans" font-size="10.00">generate_kde_plot</text>
</g>
<!-- 3&#45;&gt;0 -->
<g id="edge2" class="edge">
<title>3&#45;&gt;0</title>
<path fill="none" stroke="grey" stroke-width="2" d="M117.42,-359.85C107.19,-333.49 89.5,-281.21 89.5,-235 89.5,-235 89.5,-235 89.5,-161 89.5,-119.13 107.5,-73.42 120.73,-45.48"/>
<polygon fill="grey" stroke="grey" stroke-width="2" points="123.94,-46.89 125.18,-36.37 117.65,-43.82 123.94,-46.89"/>
</g>
<!-- 4&#45;&gt;3 -->
<g id="edge7" class="edge">
<title>4&#45;&gt;3</title>
<path fill="none" stroke="grey" stroke-width="2" d="M153.11,-431.7C148.74,-423.64 143.44,-413.89 138.6,-404.98"/>
<polygon fill="grey" stroke="grey" stroke-width="2" points="141.63,-403.22 133.79,-396.1 135.48,-406.56 141.63,-403.22"/>
</g>
<!-- 6 -->
<g id="node7" class="node">
<title>6</title>
<path fill="none" stroke="#d89c56" stroke-width="2" d="M254.5,-396C254.5,-396 202.5,-396 202.5,-396 196.5,-396 190.5,-390 190.5,-384 190.5,-384 190.5,-372 190.5,-372 190.5,-366 196.5,-360 202.5,-360 202.5,-360 254.5,-360 254.5,-360 260.5,-360 266.5,-366 266.5,-372 266.5,-372 266.5,-384 266.5,-384 266.5,-390 260.5,-396 254.5,-396"/>
<text text-anchor="middle" x="228.5" y="-375.5" font-family="sans" font-size="10.00">extract_reads</text>
</g>
<!-- 4&#45;&gt;6 -->
<g id="edge10" class="edge">
<title>4&#45;&gt;6</title>
<path fill="none" stroke="grey" stroke-width="2" d="M178.81,-431.7C186.81,-423.22 196.57,-412.86 205.32,-403.58"/>
<polygon fill="grey" stroke="grey" stroke-width="2" points="208.06,-405.78 212.37,-396.1 202.97,-400.98 208.06,-405.78"/>
</g>
<!-- 5 -->
<g id="node6" class="node">
<title>5</title>
<path fill="none" stroke="#ced856" stroke-width="2" d="M173,-252C173,-252 130,-252 130,-252 124,-252 118,-246 118,-240 118,-240 118,-228 118,-228 118,-222 124,-216 130,-216 130,-216 173,-216 173,-216 179,-216 185,-222 185,-228 185,-228 185,-240 185,-240 185,-246 179,-252 173,-252"/>
<text text-anchor="middle" x="151.5" y="-231.5" font-family="sans" font-size="10.00">kde_filtered</text>
</g>
<!-- 5&#45;&gt;0 -->
<g id="edge1" class="edge">
<title>5&#45;&gt;0</title>
<path fill="none" stroke="grey" stroke-width="2" d="M150.14,-215.85C147.2,-178.83 140.23,-91.18 136.68,-46.39"/>
<polygon fill="grey" stroke="grey" stroke-width="2" points="140.15,-45.92 135.87,-36.23 133.17,-46.48 140.15,-45.92"/>
</g>
<!-- 6&#45;&gt;5 -->
<g id="edge9" class="edge">
<title>6&#45;&gt;5</title>
<path fill="none" stroke="grey" stroke-width="2" d="M206.67,-359.93C195.86,-350.42 183.45,-337.74 175.5,-324 164.45,-304.89 158.34,-280.54 155.05,-262.14"/>
<polygon fill="grey" stroke="grey" stroke-width="2" points="158.48,-261.39 153.43,-252.08 151.57,-262.51 158.48,-261.39"/>
</g>
<!-- 10 -->
<g id="node11" class="node">
<title>10</title>
<path fill="none" stroke="#68d856" stroke-width="2" d="M260,-324C260,-324 197,-324 197,-324 191,-324 185,-318 185,-312 185,-312 185,-300 185,-300 185,-294 191,-288 197,-288 197,-288 260,-288 260,-288 266,-288 272,-294 272,-300 272,-300 272,-312 272,-312 272,-318 266,-324 260,-324"/>
<text text-anchor="middle" x="228.5" y="-303.5" font-family="sans" font-size="10.00">undesirable_seq</text>
</g>
<!-- 6&#45;&gt;10 -->
<g id="edge14" class="edge">
<title>6&#45;&gt;10</title>
<path fill="none" stroke="grey" stroke-width="2" d="M228.5,-359.7C228.5,-351.98 228.5,-342.71 228.5,-334.11"/>
<polygon fill="grey" stroke="grey" stroke-width="2" points="232,-334.1 228.5,-324.1 225,-334.1 232,-334.1"/>
</g>
<!-- 14 -->
<g id="node15" class="node">
<title>14</title>
<path fill="none" stroke="#56d88a" stroke-width="2" d="M340.5,-324C340.5,-324 302.5,-324 302.5,-324 296.5,-324 290.5,-318 290.5,-312 290.5,-312 290.5,-300 290.5,-300 290.5,-294 296.5,-288 302.5,-288 302.5,-288 340.5,-288 340.5,-288 346.5,-288 352.5,-294 352.5,-300 352.5,-300 352.5,-312 352.5,-312 352.5,-318 346.5,-324 340.5,-324"/>
<text text-anchor="middle" x="321.5" y="-303.5" font-family="sans" font-size="10.00">split_fastq</text>
</g>
<!-- 6&#45;&gt;14 -->
<g id="edge18" class="edge">
<title>6&#45;&gt;14</title>
<path fill="none" stroke="grey" stroke-width="2" d="M251.49,-359.7C263.31,-350.8 277.89,-339.82 290.68,-330.2"/>
<polygon fill="grey" stroke="grey" stroke-width="2" points="292.89,-332.91 298.78,-324.1 288.68,-327.32 292.89,-332.91"/>
</g>
<!-- 7 -->
<g id="node8" class="node">
<title>7</title>
<path fill="none" stroke="#56d86b" stroke-width="2" d="M248,-108C248,-108 175,-108 175,-108 169,-108 163,-102 163,-96 163,-96 163,-84 163,-84 163,-78 169,-72 175,-72 175,-72 248,-72 248,-72 254,-72 260,-78 260,-84 260,-84 260,-96 260,-96 260,-102 254,-108 248,-108"/>
<text text-anchor="middle" x="211.5" y="-87.5" font-family="sans" font-size="10.00">merge_summaries</text>
</g>
<!-- 7&#45;&gt;0 -->
<g id="edge4" class="edge">
<title>7&#45;&gt;0</title>
<path fill="none" stroke="grey" stroke-width="2" d="M192.47,-71.7C182.96,-63.05 171.29,-52.45 160.93,-43.03"/>
<polygon fill="grey" stroke="grey" stroke-width="2" points="163.07,-40.24 153.31,-36.1 158.36,-45.42 163.07,-40.24"/>
</g>
<!-- 8 -->
<g id="node9" class="node">
<title>8</title>
<path fill="none" stroke="#d85656" stroke-width="2" d="M255.5,-180C255.5,-180 175.5,-180 175.5,-180 169.5,-180 163.5,-174 163.5,-168 163.5,-168 163.5,-156 163.5,-156 163.5,-150 169.5,-144 175.5,-144 175.5,-144 255.5,-144 255.5,-144 261.5,-144 267.5,-150 267.5,-156 267.5,-156 267.5,-168 267.5,-168 267.5,-174 261.5,-180 255.5,-180"/>
<text text-anchor="middle" x="215.5" y="-159.5" font-family="sans" font-size="10.00">summarize_kraken2</text>
</g>
<!-- 8&#45;&gt;7 -->
<g id="edge11" class="edge">
<title>8&#45;&gt;7</title>
<path fill="none" stroke="grey" stroke-width="2" d="M214.51,-143.7C214.07,-135.98 213.54,-126.71 213.05,-118.11"/>
<polygon fill="grey" stroke="grey" stroke-width="2" points="216.54,-117.89 212.48,-108.1 209.55,-118.29 216.54,-117.89"/>
</g>
<!-- 9 -->
<g id="node10" class="node">
<title>9</title>
<path fill="none" stroke="#569ad8" stroke-width="2" d="M245.5,-252C245.5,-252 215.5,-252 215.5,-252 209.5,-252 203.5,-246 203.5,-240 203.5,-240 203.5,-228 203.5,-228 203.5,-222 209.5,-216 215.5,-216 215.5,-216 245.5,-216 245.5,-216 251.5,-216 257.5,-222 257.5,-228 257.5,-228 257.5,-240 257.5,-240 257.5,-246 251.5,-252 245.5,-252"/>
<text text-anchor="middle" x="230.5" y="-231.5" font-family="sans" font-size="10.00">kraken2</text>
</g>
<!-- 9&#45;&gt;8 -->
<g id="edge12" class="edge">
<title>9&#45;&gt;8</title>
<path fill="none" stroke="grey" stroke-width="2" d="M226.79,-215.7C225.14,-207.98 223.15,-198.71 221.31,-190.11"/>
<polygon fill="grey" stroke="grey" stroke-width="2" points="224.68,-189.15 219.17,-180.1 217.84,-190.62 224.68,-189.15"/>
</g>
<!-- 10&#45;&gt;9 -->
<g id="edge13" class="edge">
<title>10&#45;&gt;9</title>
<path fill="none" stroke="grey" stroke-width="2" d="M228.99,-287.7C229.21,-279.98 229.48,-270.71 229.73,-262.11"/>
<polygon fill="grey" stroke="grey" stroke-width="2" points="233.22,-262.2 230.01,-252.1 226.23,-262 233.22,-262.2"/>
</g>
<!-- 11 -->
<g id="node12" class="node">
<title>11</title>
<path fill="none" stroke="#56d8a9" stroke-width="2" d="M352.5,-108C352.5,-108 290.5,-108 290.5,-108 284.5,-108 278.5,-102 278.5,-96 278.5,-96 278.5,-84 278.5,-84 278.5,-78 284.5,-72 290.5,-72 290.5,-72 352.5,-72 352.5,-72 358.5,-72 364.5,-78 364.5,-84 364.5,-84 364.5,-96 364.5,-96 364.5,-102 358.5,-108 352.5,-108"/>
<text text-anchor="middle" x="321.5" y="-87.5" font-family="sans" font-size="10.00">make_new_fofn</text>
</g>
<!-- 11&#45;&gt;0 -->
<g id="edge5" class="edge">
<title>11&#45;&gt;0</title>
<path fill="none" stroke="grey" stroke-width="2" d="M278.13,-72.76C245.71,-60.63 201.87,-44.22 171.19,-32.73"/>
<polygon fill="grey" stroke="grey" stroke-width="2" points="172.31,-29.42 161.72,-29.19 169.85,-35.97 172.31,-29.42"/>
</g>
<!-- 12 -->
<g id="node13" class="node">
<title>12</title>
<path fill="none" stroke="#56d8d0" stroke-width="2" d="M345,-180C345,-180 298,-180 298,-180 292,-180 286,-174 286,-168 286,-168 286,-156 286,-156 286,-150 292,-144 298,-144 298,-144 345,-144 345,-144 351,-144 357,-150 357,-156 357,-156 357,-168 357,-168 357,-174 351,-180 345,-180"/>
<text text-anchor="middle" x="321.5" y="-159.5" font-family="sans" font-size="10.00">gather_fastq</text>
</g>
<!-- 12&#45;&gt;11 -->
<g id="edge15" class="edge">
<title>12&#45;&gt;11</title>
<path fill="none" stroke="grey" stroke-width="2" d="M321.5,-143.7C321.5,-135.98 321.5,-126.71 321.5,-118.11"/>
<polygon fill="grey" stroke="grey" stroke-width="2" points="325,-118.1 321.5,-108.1 318,-118.1 325,-118.1"/>
</g>
<!-- 13 -->
<g id="node14" class="node">
<title>13</title>
<path fill="none" stroke="#56c1d8" stroke-width="2" d="M346,-252C346,-252 297,-252 297,-252 291,-252 285,-246 285,-240 285,-240 285,-228 285,-228 285,-222 291,-216 297,-216 297,-216 346,-216 346,-216 352,-216 358,-222 358,-228 358,-228 358,-240 358,-240 358,-246 352,-252 346,-252"/>
<text text-anchor="middle" x="321.5" y="-231.5" font-family="sans" font-size="10.00">subset_fastq</text>
</g>
<!-- 13&#45;&gt;12 -->
<g id="edge16" class="edge">
<title>13&#45;&gt;12</title>
<path fill="none" stroke="grey" stroke-width="2" d="M321.5,-215.7C321.5,-207.98 321.5,-198.71 321.5,-190.11"/>
<polygon fill="grey" stroke="grey" stroke-width="2" points="325,-190.1 321.5,-180.1 318,-190.1 325,-190.1"/>
</g>
<!-- 14&#45;&gt;13 -->
<g id="edge17" class="edge">
<title>14&#45;&gt;13</title>
<path fill="none" stroke="grey" stroke-width="2" d="M321.5,-287.7C321.5,-279.98 321.5,-270.71 321.5,-262.11"/>
<polygon fill="grey" stroke="grey" stroke-width="2" points="325,-262.1 321.5,-252.1 318,-262.1 325,-262.1"/>
</g>
</g>
</svg>
